# xmcd
#
# Track frame offsets:
#	150
#	12937
#	33790
#	51405
#	72008
#	85011
#	99105
#	116111
#	129601
#	143574
#	155847
#	166507
#	184774
#	203989
#	219997
#	235162
#	249709
#	266039
#	277849
#	293310
#	308215
#
# Disc length: 4298 seconds
#
# Revision: 1
# Processed by: cddbd v1.5.2PL0 Copyright (c) Steve Scherf et al.
# Submitted via: audiograbber 1.83.01
#
DISCID=1c10c815
DTITLE=Dave Ray - Dave Ray - Legacy Disc 2
DYEAR=2002
DGENRE=Blues
TTITLE0=If It Ain't Me
TTITLE1=Long Distance Call
TTITLE2=Take Out Some Insurance
TTITLE3=Going Down Slow
TTITLE4=Be My Chauffeur
TTITLE5=Last Fair Deal
TTITLE6=Lawton, OK
TTITLE7=Uncertain Blues
TTITLE8=Catfish Blues
TTITLE9=Gravel Road
TTITLE10=Ashes in My Whiskey
TTITLE11=Long Hair Doney
TTITLE12=Big Road
TTITLE13=Temple's Cure
TTITLE14=Can't Be Satisfied
TTITLE15=Satesboro Blues
TTITLE16=Mother Earth
TTITLE17=Forth Worth and Dallas
TTITLE18=Going Away
TTITLE19=You Got to Move
TTITLE20=I Made a Mistake
EXTD=
EXTT0=
EXTT1=
EXTT2=
EXTT3=
EXTT4=
EXTT5=
EXTT6=
EXTT7=
EXTT8=
EXTT9=
EXTT10=
EXTT11=
EXTT12=
EXTT13=
EXTT14=
EXTT15=
EXTT16=
EXTT17=
EXTT18=
EXTT19=
EXTT20=
PLAYORDER=
